<?xml version="1.0" encoding="UTF-8"?>
<svg xmlns="http://www.w3.org/2000/svg" xmlns:xlink="http://www.w3.org/1999/xlink" width="13pt" height="13pt" viewBox="0 0 13 13" version="1.1">
<g id="surface770">
<path style=" stroke:none;fill-rule:nonzero;fill:rgb(100%,100%,100%);fill-opacity:1;" d="M 11.078125 4.238281 C 11.023438 4.273438 9.757812 4.976562 9.757812 6.539062 C 9.816406 8.320312 11.355469 8.945312 11.382812 8.945312 C 11.355469 8.976562 11.152344 9.792969 10.539062 10.652344 C 10.054688 11.390625 9.515625 12.132812 8.699219 12.132812 C 7.921875 12.132812 7.644531 11.640625 6.746094 11.640625 C 5.78125 11.640625 5.511719 12.132812 4.773438 12.132812 C 3.957031 12.132812 3.378906 11.347656 2.867188 10.617188 C 2.203125 9.660156 1.636719 8.160156 1.617188 6.71875 C 1.605469 5.953125 1.75 5.203125 2.121094 4.566406 C 2.648438 3.675781 3.582031 3.070312 4.605469 3.050781 C 5.390625 3.023438 6.089844 3.589844 6.566406 3.589844 C 7.023438 3.589844 7.882812 3.050781 8.851562 3.050781 C 9.269531 3.050781 10.386719 3.175781 11.078125 4.238281 Z M 6.5 2.898438 C 6.359375 2.199219 6.746094 1.503906 7.105469 1.058594 C 7.5625 0.519531 8.289062 0.152344 8.910156 0.152344 C 8.953125 0.851562 8.699219 1.535156 8.246094 2.035156 C 7.84375 2.574219 7.144531 2.976562 6.5 2.898438 Z M 6.5 2.898438 "/>
</g>
</svg>
