<?xml version="1.0" encoding="UTF-8"?>
<svg xmlns="http://www.w3.org/2000/svg" xmlns:xlink="http://www.w3.org/1999/xlink" width="14pt" height="14pt" viewBox="0 0 14 14" version="1.1">
<g id="surface2269">
<path style=" stroke:none;fill-rule:nonzero;fill:rgb(0%,0%,0%);fill-opacity:1;" d="M 4.640625 1.023438 C 4.5625 1.027344 4.484375 1.074219 4.449219 1.144531 C 4.414062 1.21875 4.417969 1.308594 4.464844 1.375 L 5.121094 2.320312 C 4.492188 2.804688 4.050781 3.519531 3.933594 4.34375 L 10.070312 4.34375 C 9.953125 3.519531 9.511719 2.804688 8.882812 2.320312 L 9.539062 1.375 C 9.585938 1.304688 9.589844 1.214844 9.554688 1.144531 C 9.515625 1.070312 9.4375 1.023438 9.355469 1.023438 C 9.28125 1.023438 9.214844 1.0625 9.171875 1.121094 L 8.511719 2.078125 C 8.066406 1.828125 7.550781 1.683594 7.003906 1.683594 C 6.453125 1.683594 5.9375 1.828125 5.492188 2.078125 L 4.832031 1.121094 C 4.789062 1.058594 4.71875 1.023438 4.640625 1.023438 Z M 5.671875 2.570312 C 5.917969 2.570312 6.117188 2.765625 6.117188 3.011719 C 6.117188 3.257812 5.917969 3.457031 5.671875 3.457031 C 5.425781 3.457031 5.230469 3.257812 5.230469 3.011719 C 5.230469 2.765625 5.425781 2.570312 5.671875 2.570312 Z M 8.332031 2.570312 C 8.578125 2.570312 8.773438 2.765625 8.773438 3.011719 C 8.773438 3.257812 8.578125 3.457031 8.332031 3.457031 C 8.085938 3.457031 7.890625 3.257812 7.890625 3.011719 C 7.890625 2.765625 8.085938 2.570312 8.332031 2.570312 Z M 2.570312 5.230469 C 2.324219 5.230469 2.125 5.425781 2.125 5.671875 L 2.125 9.21875 C 2.125 9.464844 2.324219 9.660156 2.570312 9.660156 C 2.8125 9.660156 3.011719 9.464844 3.011719 9.21875 L 3.011719 5.671875 C 3.011719 5.425781 2.8125 5.230469 2.570312 5.230469 Z M 3.898438 5.230469 L 3.898438 9.660156 C 3.898438 10.152344 4.296875 10.546875 4.785156 10.546875 L 4.785156 12.101562 C 4.785156 12.46875 5.082031 12.765625 5.449219 12.765625 C 5.816406 12.765625 6.117188 12.46875 6.117188 12.101562 L 6.117188 10.546875 L 7.890625 10.546875 L 7.890625 12.101562 C 7.890625 12.46875 8.1875 12.765625 8.554688 12.765625 C 8.921875 12.765625 9.21875 12.46875 9.21875 12.101562 L 9.21875 10.546875 C 9.707031 10.546875 10.105469 10.152344 10.105469 9.660156 L 10.105469 5.230469 Z M 11.433594 5.230469 C 11.191406 5.230469 10.992188 5.425781 10.992188 5.671875 L 10.992188 9.21875 C 10.992188 9.464844 11.191406 9.660156 11.433594 9.660156 C 11.679688 9.660156 11.878906 9.464844 11.878906 9.21875 L 11.878906 5.671875 C 11.878906 5.425781 11.679688 5.230469 11.433594 5.230469 Z M 11.433594 5.230469 "/>
</g>
</svg>
