<?xml version="1.0" encoding="UTF-8"?>
<svg xmlns="http://www.w3.org/2000/svg" xmlns:xlink="http://www.w3.org/1999/xlink" width="14pt" height="14pt" viewBox="0 0 14 14" version="1.1">
<g id="surface2104">
<path style=" stroke:none;fill-rule:nonzero;fill:rgb(100%,100%,100%);fill-opacity:1;" d="M 7.085938 1.398438 C 5.515625 1.398438 3.773438 1.988281 3.40625 3.90625 C 3.367188 4.109375 3.511719 4.214844 3.644531 4.246094 L 5.238281 4.40625 C 5.386719 4.398438 5.507812 4.261719 5.535156 4.113281 C 5.671875 3.453125 6.234375 3.125 6.863281 3.125 C 7.199219 3.125 7.585938 3.253906 7.785156 3.554688 C 8.019531 3.886719 7.980469 4.34375 7.980469 4.734375 L 7.980469 4.953125 C 7.023438 5.058594 5.777344 5.125 4.882812 5.515625 C 3.847656 5.957031 3.125 6.859375 3.125 8.183594 C 3.125 9.878906 4.207031 10.734375 5.597656 10.734375 C 6.769531 10.734375 7.402344 10.453125 8.308594 9.539062 C 8.605469 9.96875 8.710938 10.179688 9.261719 10.632812 C 9.382812 10.695312 9.539062 10.683594 9.648438 10.585938 L 9.648438 10.601562 C 9.976562 10.3125 10.578125 9.792969 10.914062 9.511719 C 11.046875 9.402344 11.019531 9.230469 10.914062 9.082031 C 10.613281 8.671875 10.300781 8.328125 10.300781 7.5625 L 10.300781 5.027344 C 10.300781 3.949219 10.375 2.953125 9.574219 2.210938 C 8.941406 1.609375 7.886719 1.398438 7.085938 1.398438 Z M 7.53125 6.265625 C 7.679688 6.253906 7.828125 6.265625 7.980469 6.265625 L 7.980469 6.617188 C 7.980469 7.253906 8.003906 7.777344 7.679688 8.34375 C 7.417969 8.804688 6.996094 9.082031 6.535156 9.082031 C 5.902344 9.082031 5.535156 8.609375 5.535156 7.902344 C 5.535156 6.6875 6.492188 6.332031 7.53125 6.265625 Z M 12.171875 10.371094 C 11.746094 10.375 11.25 10.464844 10.871094 10.730469 C 10.753906 10.808594 10.769531 10.925781 10.898438 10.910156 C 11.328125 10.859375 12.273438 10.738281 12.441406 10.953125 C 12.613281 11.167969 12.253906 12.054688 12.097656 12.453125 C 12.046875 12.570312 12.152344 12.617188 12.261719 12.527344 C 12.972656 11.9375 13.164062 10.714844 13.019531 10.535156 C 12.945312 10.445312 12.59375 10.363281 12.171875 10.371094 Z M 1.015625 10.59375 C 0.925781 10.605469 0.894531 10.722656 0.984375 10.804688 C 2.570312 12.21875 4.65625 13.066406 6.980469 13.066406 C 8.636719 13.066406 10.570312 12.554688 11.898438 11.582031 C 12.117188 11.421875 11.925781 11.171875 11.703125 11.269531 C 10.214844 11.894531 8.585938 12.195312 7.117188 12.195312 C 4.933594 12.195312 2.832031 11.609375 1.121094 10.625 C 1.085938 10.601562 1.046875 10.589844 1.015625 10.59375 Z M 1.015625 10.59375 "/>
</g>
</svg>
